<svg width="24" height="25" viewBox="0 0 24 25" fill="none" xmlns="http://www.w3.org/2000/svg">
<path d="M10.8604 4.16699L3.43821 13.0736C3.14755 13.4223 3.00221 13.5967 3.00005 13.7441C2.99909 13.8073 3.01252 13.8698 3.03931 13.9271C3.06611 13.9843 3.10557 14.0347 3.15471 14.0744C3.2693 14.167 3.49638 14.167 3.95038 14.167H10.027L9.19371 20.8337L16.6158 11.9271C16.9065 11.5783 17.0518 11.4039 17.054 11.2566C17.055 11.1934 17.0416 11.1308 17.0147 11.0736C16.9879 11.0163 16.9485 10.966 16.8993 10.9262C16.7847 10.8337 16.5577 10.8337 16.1037 10.8337H10.027L10.8604 4.16699Z" stroke="#71717A" stroke-width="1.66667" stroke-linecap="round" stroke-linejoin="round"/>
</svg>
