<svg width="24" height="25" viewBox="0 0 24 25" fill="none" xmlns="http://www.w3.org/2000/svg">
<path d="M9.5 5V20M19.5 9V16C19.5 17.4002 19.5 18.1002 19.2275 18.635C18.9878 19.1054 18.6054 19.4878 18.135 19.7275C17.6002 20 16.9002 20 15.5 20H8.5C7.09983 20 6.39983 20 5.865 19.7275C5.39462 19.4878 5.01218 19.1054 4.7725 18.635C4.5 18.1002 4.5 17.4002 4.5 16V9C4.5 7.59983 4.5 6.89983 4.7725 6.365C5.01218 5.89462 5.39462 5.51218 5.865 5.2725C6.39983 5 7.09983 5 8.5 5H15.5C16.9002 5 17.6002 5 18.135 5.2725C18.6054 5.51218 18.9878 5.89462 19.2275 6.365C19.5 6.89983 19.5 7.59983 19.5 9Z" stroke="#71717A" stroke-width="1.66667" stroke-linecap="round" stroke-linejoin="round"/>
</svg>
