<svg width="208" height="32" viewBox="0 0 208 32" fill="none" xmlns="http://www.w3.org/2000/svg">
<path d="M32 0H0V32H32V0Z" fill="#FB5B16"/>
<path d="M26.3983 18.4254C24.8012 19.5869 23.1953 20.7484 21.5983 21.9055C19.7813 23.2253 17.9643 24.5408 16.1516 25.8651C16.134 25.8783 16.1164 25.8915 16.0988 25.9003C16.0636 25.9222 16.0284 25.9355 15.9977 25.9398C15.9713 25.9398 15.9449 25.9398 15.9185 25.9355H15.9141C15.8745 25.9222 15.8349 25.9003 15.7865 25.8694C13.7187 24.3604 11.6509 22.8602 9.58314 21.3511C8.26764 20.3876 6.93898 19.4329 5.6367 18.4606C5.33753 18.2363 5.06916 17.9106 5.08676 17.5411C5.09115 17.4092 5.13515 17.2771 5.17475 17.1495C5.54432 16.0321 5.91828 14.9146 6.29664 13.7971C6.30104 13.7839 6.30544 13.7663 6.30984 13.7531C6.88618 12.0549 7.46693 10.361 8.05647 8.67155C8.28085 8.00724 8.4964 7.3341 8.71644 6.66537C8.7428 6.58178 8.77362 6.50258 8.79998 6.419C8.85716 6.24301 8.97598 6.11982 9.16074 6.11982C9.35434 6.11982 9.47754 6.25181 9.53471 6.43219C9.84267 7.34731 10.1463 8.26241 10.4674 9.17311C10.859 10.2994 11.2682 11.4169 11.6641 12.5432C11.7829 12.8775 11.8885 13.2207 11.9809 13.5639C11.9809 13.5683 11.9809 13.5727 11.9809 13.5771C11.9852 13.5991 11.9941 13.6166 11.9985 13.6387C12.0161 13.7003 12.038 13.7487 12.0645 13.7795H13.0279C13.0676 13.7355 13.094 13.6607 13.138 13.5375C13.4108 12.7543 13.6791 11.9669 13.9519 11.1837C14.493 9.61311 15.0298 8.04243 15.5709 6.47179C15.5885 6.419 15.6061 6.3706 15.6281 6.3222C15.6897 6.16382 15.8041 6.06703 15.9801 6.07143C16.1561 6.07143 16.2661 6.16822 16.3233 6.32661C16.53 6.91174 16.7368 7.50129 16.9436 8.08643C17.5287 9.74945 18.1139 11.4081 18.699 13.0711C18.7694 13.2735 18.8354 13.4759 18.897 13.6827C18.9102 13.7222 18.9234 13.7574 18.9454 13.7839H19.8737C19.8737 13.7839 19.9133 13.7267 19.9441 13.6694C20.2124 13.1152 20.9164 10.8449 21.11 10.2774C21.5456 9.01471 21.9811 7.75206 22.4167 6.48499C22.4475 6.397 22.4871 6.30901 22.5442 6.23862C22.7378 6.00983 23.0458 6.07143 23.1601 6.375C23.3274 6.82816 23.4726 7.28571 23.631 7.74326C24.2997 9.70987 24.964 11.6764 25.6371 13.6387C25.646 13.6607 25.6503 13.6827 25.6591 13.7046C25.6636 13.7179 25.6679 13.7355 25.6767 13.7487C26.0595 14.8662 26.4511 15.9749 26.8338 17.0924C27.0538 17.7302 26.9526 18.0383 26.4203 18.4298L26.3983 18.4254Z" fill="white"/>
<path d="M25.6693 13.7467L16.109 25.907C16.0738 25.9291 16.0386 25.9422 16.0078 25.9467L19.8619 13.7774H19.8706C19.8706 13.7774 19.9102 13.7203 19.941 13.6631L16.065 25.9027L25.6561 13.7027C25.6561 13.7027 25.6649 13.7335 25.6737 13.7467H25.6693Z" fill="#EDEDED"/>
<path d="M15.9187 25.9409H15.9143C15.8748 25.9277 15.8352 25.9057 15.7868 25.8748L6.29688 13.8025C6.29688 13.8025 6.30567 13.7717 6.31007 13.7585L15.8659 25.9145L11.9591 13.5781H11.9767L11.9811 13.5693C11.99 13.5957 11.9943 13.6177 12.0031 13.6441C12.0163 13.6969 12.0383 13.7409 12.0603 13.7761C12.0603 13.7761 12.0647 13.7849 12.0691 13.7849L15.9187 25.9409Z" fill="#EDEDED"/>
<g clip-path="url(#clip0_11786_30751)">
<path d="M40.7112 10.2586C41.7806 8.3303 43.2536 6.81002 45.1346 5.69343C47.0157 4.57685 49.1286 4.01855 51.4777 4.01855C53.3115 4.01855 54.9907 4.35353 56.5195 5.02348C58.0484 5.69343 59.3497 6.62106 60.4319 7.80636C61.5141 8.99166 62.3129 10.3144 62.8282 11.7702H58.5294C57.8466 10.4089 56.8846 9.33093 55.6392 8.54502C54.3937 7.75912 53.0066 7.36402 51.482 7.36402C49.9574 7.36402 48.4844 7.7763 47.2175 8.59656C45.9506 9.42112 44.95 10.542 44.2199 11.9635C43.4898 13.385 43.1291 14.9654 43.1291 16.7047C43.1291 18.444 43.4941 20.0244 44.2199 21.4459C44.95 22.8674 45.9506 23.9883 47.2347 24.8128C48.5145 25.6374 49.9403 26.0454 51.5164 26.0454C52.998 26.0454 54.3164 25.7147 55.4803 25.0576C56.6441 24.4006 57.5889 23.5202 58.319 22.4165C59.049 21.3128 59.5171 20.1146 59.7276 18.8219H49.8587V15.4722H63.7086C63.8976 18.1262 63.4596 20.514 62.4031 22.6269C61.3466 24.7398 59.8478 26.3975 57.911 27.5957C55.9741 28.7939 53.8268 29.3951 51.4777 29.3951C49.1286 29.3951 47.0114 28.8368 45.1346 27.7203C43.2536 26.6037 41.7806 25.0834 40.7112 23.1551C39.6419 21.2269 39.1094 19.0796 39.1094 16.7047C39.1094 14.3298 39.6419 12.1825 40.7112 10.2543V10.2586Z" fill="#18181B" stroke="#18181B" stroke-width="0.214728" stroke-miterlimit="10"/>
<path d="M66.8064 15.1756C67.6266 13.7327 68.7604 12.6032 70.2077 11.7915C71.6549 10.9799 73.2697 10.5762 75.0519 10.5762C76.933 10.5762 78.6293 11.0271 80.1453 11.9333C81.6613 12.8394 82.8079 14.0934 83.5809 15.7039C84.3582 17.3143 84.6503 19.0923 84.4613 21.042H69.3058C69.4218 22.0985 69.7524 23.0347 70.2936 23.8421C70.8347 24.6538 71.5132 25.2936 72.3378 25.7617C73.1623 26.2342 74.0642 26.4661 75.0519 26.4661C76.2286 26.4661 77.2293 26.1783 78.0667 25.6028C78.8999 25.0274 79.5655 24.2587 80.0594 23.2924H83.903C83.2674 25.1734 82.168 26.6593 80.6091 27.7501C79.0459 28.841 77.1863 29.3907 75.0219 29.3907C73.2611 29.3907 71.6549 28.987 70.212 28.1753C68.769 27.3636 67.6352 26.2427 66.8107 24.8084C65.9861 23.374 65.5781 21.7678 65.5781 19.9813C65.5781 18.1947 65.9904 16.6143 66.8107 15.1714L66.8064 15.1756ZM79.6557 15.9143C79.1275 15.1756 78.4704 14.5873 77.6802 14.1535C76.8943 13.7198 76.0182 13.5008 75.0562 13.5008C74.0942 13.5008 73.2139 13.7198 72.4151 14.1535C71.6163 14.5873 70.9635 15.1714 70.461 15.8971C69.9543 16.6272 69.6107 17.426 69.4218 18.2935H80.6993C80.5361 17.4475 80.1882 16.653 79.66 15.9143H79.6557Z" fill="#18181B" stroke="#18181B" stroke-width="0.214728" stroke-miterlimit="10"/>
<path d="M92.4368 5.7832V10.9281H98.4277V13.9257H92.4368V22.2786C92.4368 23.9234 92.9178 25.0701 93.8841 25.7143C94.8461 26.3628 96.362 26.3885 98.432 25.8045V28.8364C96.2933 29.399 94.5025 29.472 93.0595 29.0469C91.6123 28.626 90.5515 27.8272 89.8687 26.6505C89.1858 25.4781 88.8466 24.0093 88.8466 22.2443V13.9257H85.3594V10.9281H88.8466V5.7832H92.4411H92.4368Z" fill="#18181B" stroke="#18181B" stroke-width="0.214728" stroke-miterlimit="10"/>
<path d="M100.656 13.9217V10.9241H104.5V9.65718C104.5 7.91788 104.783 6.49638 105.346 5.39268C105.909 4.28897 106.849 3.50307 108.167 3.03067C109.482 2.56256 111.221 2.48096 113.385 2.78588V5.81784C111.977 5.62888 110.882 5.63747 110.109 5.83502C109.331 6.03686 108.803 6.44484 108.524 7.06756C108.24 7.69027 108.099 8.55348 108.099 9.65718V10.9241H113.385V13.9217H108.099V29.0428H104.504V13.9217H100.661H100.656Z" fill="#18181B" stroke="#18181B" stroke-width="0.214728" stroke-miterlimit="10"/>
<path d="M114.984 15.1756C115.817 13.7327 116.96 12.6032 118.403 11.7915C119.85 10.9799 121.465 10.5762 123.247 10.5762C125.029 10.5762 126.648 10.9799 128.091 11.7915C129.538 12.6032 130.676 13.7284 131.51 15.1756C132.343 16.6186 132.759 18.2248 132.759 19.9856C132.759 21.7463 132.343 23.3826 131.51 24.8127C130.676 26.247 129.534 27.3679 128.091 28.1796C126.648 28.9913 125.029 29.3949 123.247 29.3949C121.465 29.3949 119.846 28.9913 118.403 28.1796C116.96 27.3679 115.817 26.247 114.984 24.8127C114.151 23.3783 113.734 21.7721 113.734 19.9856C113.734 18.199 114.151 16.6186 114.984 15.1756ZM118.244 23.2451C118.759 24.22 119.455 24.9887 120.322 25.5556C121.19 26.1182 122.165 26.4016 123.247 26.4016C124.329 26.4016 125.304 26.1182 126.171 25.5556C127.039 24.993 127.735 24.2243 128.25 23.2451C128.765 22.2703 129.027 21.1837 129.027 19.9856C129.027 18.7874 128.77 17.7009 128.25 16.726C127.735 15.7511 127.039 14.9867 126.171 14.437C125.304 13.8873 124.329 13.6081 123.247 13.6081C122.165 13.6081 121.19 13.883 120.322 14.437C119.455 14.991 118.759 15.7511 118.244 16.726C117.728 17.7009 117.466 18.7874 117.466 19.9856C117.466 21.1837 117.724 22.2703 118.244 23.2451Z" fill="#18181B" stroke="#18181B" stroke-width="0.214728" stroke-miterlimit="10"/>
<path d="M139.251 10.9278V13.6076C139.719 12.8776 140.307 12.2634 141.012 11.7567C141.716 11.2499 142.493 10.9107 143.339 10.7346C144.185 10.5585 145.044 10.5542 145.912 10.7174V14.0672C144.619 13.8567 143.468 13.9083 142.459 14.2261C141.45 14.5439 140.659 15.0936 140.097 15.8838C139.534 16.6697 139.251 17.6059 139.251 18.6838V29.0466H135.656V10.9278H139.251Z" fill="#18181B" stroke="#18181B" stroke-width="0.214728" stroke-miterlimit="10"/>
<path d="M151.763 2.96191V19.8782L160.116 10.9283H164.625L157.153 18.68L165.398 29.0428H160.85L154.683 21.3255L151.759 24.2844V29.0428H148.164V2.96191H151.759H151.763Z" fill="#18181B" stroke="#18181B" stroke-width="0.214728" stroke-miterlimit="10"/>
<path d="M167.108 25.5167C167.332 25.1431 167.632 24.8425 168.006 24.6192C168.384 24.3958 168.805 24.2842 169.277 24.2842C169.724 24.2842 170.136 24.3958 170.51 24.6192C170.888 24.8425 171.184 25.1431 171.407 25.5167C171.631 25.8946 171.742 26.3026 171.742 26.7493C171.742 27.2217 171.631 27.6425 171.407 28.0162C171.184 28.3941 170.883 28.6904 170.51 28.9137C170.132 29.137 169.724 29.2487 169.277 29.2487C168.805 29.2487 168.384 29.137 168.006 28.9137C167.628 28.6904 167.332 28.3898 167.108 28.0162C166.885 27.6425 166.773 27.2174 166.773 26.7493C166.773 26.3026 166.885 25.8903 167.108 25.5167Z" fill="#18181B" stroke="#18181B" stroke-width="0.214728" stroke-miterlimit="10"/>
<path d="M176.379 20.0375C177.847 19.0411 179.922 18.5387 182.601 18.5387C183.821 18.5387 185.268 18.6675 186.935 18.9252V17.4436C186.935 16.2239 186.557 15.249 185.805 14.519C185.054 13.7932 184.006 13.4282 182.67 13.4282C181.403 13.4282 180.39 13.7288 179.638 14.3257C178.887 14.927 178.461 15.7902 178.371 16.9153H174.777C174.845 15.6484 175.189 14.5404 175.799 13.6042C176.409 12.6637 177.302 11.9251 178.479 11.3839C179.651 10.8428 181.051 10.5723 182.674 10.5723C185.139 10.5723 187.072 11.1993 188.472 12.4576C189.868 13.7159 190.568 15.4466 190.568 17.654V29.0389H186.939V26.0413C186.471 26.7714 185.887 27.3812 185.195 27.8751C184.504 28.3689 183.731 28.7426 182.885 29.0045C182.039 29.2665 181.133 29.391 180.171 29.391C178.431 29.391 176.997 28.9487 175.872 28.0683C174.747 27.1879 174.18 25.9253 174.18 24.2805C174.18 22.4467 174.914 21.0338 176.383 20.0332L176.379 20.0375ZM178.706 25.994C179.282 26.4063 180.098 26.6125 181.154 26.6125C182.211 26.6125 183.13 26.372 183.976 25.891C184.822 25.41 185.504 24.7787 186.02 24.0057C186.535 23.2283 186.844 22.4296 186.935 21.6093C185.406 21.3259 183.984 21.1884 182.67 21.1884C180.999 21.1884 179.78 21.4461 179.002 21.9657C178.225 22.4811 177.839 23.1768 177.839 24.0443C177.839 24.9118 178.126 25.5904 178.702 25.9983L178.706 25.994Z" fill="#18181B" stroke="#18181B" stroke-width="0.214728" stroke-miterlimit="10"/>
<path d="M193.824 4.56346C194.022 4.22419 194.288 3.95364 194.619 3.75179C194.949 3.55424 195.323 3.45117 195.748 3.45117C196.384 3.45117 196.912 3.67019 197.333 4.10395C197.754 4.5377 197.968 5.06163 197.968 5.67146C197.968 6.09233 197.874 6.47884 197.685 6.81811C197.496 7.15738 197.234 7.42794 196.89 7.62978C196.551 7.83163 196.169 7.9304 195.744 7.9304C195.108 7.9304 194.58 7.71138 194.159 7.27763C193.734 6.84388 193.523 6.30706 193.523 5.67576C193.523 5.27636 193.622 4.90703 193.824 4.56776V4.56346ZM197.543 10.928V29.0425H193.949V10.928H197.543Z" fill="#18181B" stroke="#18181B" stroke-width="0.214728" stroke-miterlimit="10"/>
</g>
<defs>
<clipPath id="clip0_11786_30751">
<rect width="161" height="27.0042" fill="white" transform="translate(39 2.49805)"/>
</clipPath>
</defs>
</svg>
