<svg width="24" height="25" viewBox="0 0 24 25" fill="none" xmlns="http://www.w3.org/2000/svg">
<path d="M10 7.5L9.48415 8.89405C8.80774 10.722 8.46953 11.636 7.80278 12.3028C7.13603 12.9695 6.22204 13.3077 4.39405 13.9842L3 14.5L4.39405 15.0158C6.22204 15.6923 7.13603 16.0305 7.80278 16.6972C8.46953 17.364 8.80774 18.278 9.48415 20.1059L10 21.5L10.5158 20.1059C11.1923 18.278 11.5305 17.364 12.1972 16.6972C12.864 16.0305 13.778 15.6923 15.6059 15.0158L17 14.5L15.6059 13.9842C13.778 13.3077 12.864 12.9695 12.1972 12.3028C11.5305 11.636 11.1923 10.722 10.5158 8.89405L10 7.5Z" stroke="#71717A" stroke-width="1.5" stroke-linejoin="round"/>
<path d="M19 3.5L18.7052 4.2966C18.3187 5.34116 18.1255 5.86345 17.7444 6.24444C17.3635 6.62544 16.8412 6.81871 15.7967 7.20523L15 7.5L15.7967 7.79477C16.8412 8.18129 17.3635 8.37456 17.7444 8.75556C18.1255 9.13655 18.3187 9.65884 18.7052 10.7034L19 11.5L19.2948 10.7034C19.6813 9.65884 19.8745 9.13655 20.2556 8.75555C20.6365 8.37456 21.1588 8.18129 22.2033 7.79477L23 7.5L22.2033 7.20523C21.1588 6.81871 20.6365 6.62544 20.2556 6.24444C19.8745 5.86345 19.6813 5.34116 19.2948 4.2966L19 3.5Z" stroke="#71717A" stroke-width="1.5" stroke-linejoin="round"/>
</svg>
