<svg width="24" height="25" viewBox="0 0 24 25" fill="none" xmlns="http://www.w3.org/2000/svg">
<path d="M4.01675 13.0947C3.90325 12.9149 3.8465 12.8251 3.81475 12.6865C3.79092 12.5824 3.79092 12.4182 3.81475 12.3142C3.8465 12.1756 3.90325 12.0857 4.01675 11.906C4.95458 10.421 7.74617 6.66699 12.0003 6.66699C16.2545 6.66699 19.0461 10.421 19.9839 11.906C20.0974 12.0857 20.1542 12.1756 20.1859 12.3142C20.2097 12.4182 20.2097 12.5824 20.1859 12.6865C20.1542 12.8251 20.0974 12.9149 19.9839 13.0947C19.0461 14.5797 16.2545 18.3337 12.0003 18.3337C7.74617 18.3337 4.95458 14.5797 4.01675 13.0947Z" stroke="#71717A" stroke-width="1.66667" stroke-linecap="round" stroke-linejoin="round"/>
<path d="M12 15C13.3807 15 14.5 13.8807 14.5 12.5C14.5 11.1192 13.3807 10 12 10C10.6192 10 9.5 11.1192 9.5 12.5C9.5 13.8807 10.6192 15 12 15Z" stroke="#71717A" stroke-width="1.66667" stroke-linecap="round" stroke-linejoin="round"/>
</svg>
