<svg width="24" height="25" viewBox="0 0 24 25" fill="none" xmlns="http://www.w3.org/2000/svg">
<path d="M19.5984 18.1989V10.5988C19.5984 8.80749 19.5984 7.91182 19.0419 7.35532C18.4854 6.79883 17.5897 6.79883 15.7984 6.79883H4.39844V18.1989C4.39844 19.9902 4.39844 20.8858 4.95494 21.4423C5.51143 21.9989 6.4071 21.9989 8.19844 21.9989H15.7984C17.5897 21.9989 18.4854 21.9989 19.0419 21.4423C19.5984 20.8858 19.5984 19.9902 19.5984 18.1989Z" stroke="#71717A" stroke-width="1.425" stroke-linecap="round" stroke-linejoin="round"/>
<path d="M11.9953 11.5496C13.5694 11.5496 14.8453 12.8256 14.8453 14.3996M11.9953 11.5496C10.4213 11.5496 9.14531 12.8256 9.14531 14.3996M11.9953 11.5496V10.5996M14.8453 14.3996H9.14531M14.8453 14.3996H15.7953M9.14531 14.3996H8.19531" stroke="#71717A" stroke-width="1.425" stroke-linecap="round" stroke-linejoin="round"/>
<path d="M8.19531 18.1992H15.7953" stroke="#71717A" stroke-width="1.425" stroke-linecap="round" stroke-linejoin="round"/>
<path d="M4.39844 6.8L11.4138 3.86057C12.9804 3.20417 13.7637 2.87597 14.3876 3.04316C14.7922 3.15157 15.1499 3.39133 15.405 3.7252C15.7984 4.24006 15.7984 5.09337 15.7984 6.8" stroke="#71717A" stroke-width="1.425" stroke-linecap="round" stroke-linejoin="round"/>
</svg>
