<svg width="24" height="25" viewBox="0 0 24 25" fill="none" xmlns="http://www.w3.org/2000/svg">
<path d="M4 11.3158C4 10.7073 4.01077 10.1133 4.03127 9.53971C4.09826 7.66592 4.13175 6.72902 4.90406 5.96114C5.67636 5.19327 6.65256 5.15205 8.60496 5.06962C9.67614 5.02439 10.8167 5 12 5C13.1833 5 14.3238 5.02439 15.395 5.06962C17.3474 5.15205 18.3237 5.19327 19.0959 5.96114C19.8682 6.72902 19.9018 7.66592 19.9687 9.53971C19.9892 10.1133 20 10.7073 20 11.3158C20 11.9243 19.9892 12.5183 19.9687 13.0919C19.9018 14.9657 19.8682 15.9026 19.0959 16.6705C18.3237 17.4383 17.3474 17.4795 15.395 17.5619C14.8078 17.5867 14.1998 17.6053 13.5754 17.617C12.9826 17.628 12.6861 17.6336 12.4256 17.7315C12.1651 17.8294 11.946 18.0149 11.5076 18.3858L9.76402 19.8612C9.65818 19.9507 9.52335 20 9.38393 20C9.06143 20 8.8 19.742 8.8 19.4238V17.5699C8.73474 17.5673 8.66972 17.5647 8.60495 17.5619C6.65255 17.4795 5.67636 17.4383 4.90406 16.6704C4.13175 15.9026 4.09826 14.9657 4.03127 13.0919C4.01077 12.5183 4 11.9243 4 11.3158Z" stroke="#71717A" stroke-width="1.67" stroke-linecap="round" stroke-linejoin="round"/>
<path d="M12 14.5H12.009" stroke="#71717A" stroke-width="1.3" stroke-linecap="round" stroke-linejoin="round"/>
<path d="M10 10.0833C10 8.93274 10.8954 8 12 8C13.1046 8 14 8.93274 14 10.0833C14 10.9461 13.4966 11.6863 12.779 12.0027C12.3721 12.1822 12 12.5398 12 13" stroke="#71717A" stroke-width="1.3" stroke-linecap="round" stroke-linejoin="round"/>
</svg>
