<svg width="24" height="25" viewBox="0 0 24 25" fill="none" xmlns="http://www.w3.org/2000/svg">
<path d="M4.32031 11.6816V15.0909C4.32031 17.5084 4.32031 18.7171 5.07041 19.4681C5.8205 20.2191 7.02775 20.2191 9.44226 20.2191H11.1496" stroke="#71717A" stroke-width="1.67" stroke-linecap="round" stroke-linejoin="round"/>
<path d="M16.9426 4.0023L7.00097 4.02713C5.51717 3.95069 5.13673 5.09468 5.13673 5.65391C5.13673 6.15407 5.07232 6.88322 4.16291 8.25365C3.2535 9.62408 3.32183 10.0312 3.83465 10.9799C4.26026 11.7674 5.34281 12.0749 5.90726 12.1267C7.70012 12.1675 8.5724 10.6171 8.5724 9.52743C9.4618 12.2653 11.9912 12.2653 13.1183 11.9523C14.2474 11.6386 15.2148 10.5159 15.443 9.52743C15.5761 10.7558 15.98 11.4726 17.1735 11.9651C18.4098 12.4753 19.473 11.6955 20.0064 11.1957C20.5398 10.6958 20.8821 9.58614 19.9313 8.36651C19.2755 7.52542 19.0022 6.73303 18.9124 5.9118C18.8604 5.43594 18.8148 4.92461 18.4804 4.59923C17.9917 4.12371 17.2907 3.97942 16.9426 4.0023Z" stroke="#71717A" stroke-width="1.67" stroke-linecap="round" stroke-linejoin="round"/>
<path d="M16.6909 15.8081V14.6699M16.6909 15.8081C15.8896 15.8081 15.1865 16.2354 14.7904 16.8779M16.6909 15.8081C17.4923 15.8081 18.1953 16.2354 18.5914 16.8779M14.7904 16.8779L13.7031 16.1876M14.7904 16.8779C14.5748 17.2277 14.4501 17.6413 14.4501 18.0846C14.4501 18.5278 14.5748 18.9414 14.7904 19.2912M18.5914 16.8779L19.6787 16.1876M18.5914 16.8779C18.8071 17.2277 18.9318 17.6413 18.9318 18.0846C18.9318 18.5278 18.8071 18.9414 18.5914 19.2912M16.6909 21.4992V20.361M16.6909 20.361C15.8896 20.361 15.1865 19.9338 14.7904 19.2912M16.6909 20.361C17.4923 20.361 18.1953 19.9338 18.5914 19.2912M14.7904 19.2912L13.7031 19.9816M18.5914 19.2912L19.6787 19.9816" stroke="#71717A" stroke-width="1.6" stroke-linecap="round" stroke-linejoin="round"/>
</svg>
