<svg width="24" height="25" viewBox="0 0 24 25" fill="none" xmlns="http://www.w3.org/2000/svg">
<path d="M4.89062 11.6113V15.1669C4.89062 18.1 4.89062 19.5666 5.80185 20.4779C6.71307 21.3891 8.17967 21.3891 11.1128 21.3891H12.8906C15.8238 21.3891 17.2904 21.3891 18.2016 20.4779C19.1128 19.5666 19.1128 18.1 19.1128 15.1669V11.6113" stroke="#71717A" stroke-width="1.5" stroke-linecap="round" stroke-linejoin="round"/>
<path d="M4 9.83247C4 9.16785 4 8.83554 4.17863 8.58802C4.29565 8.42587 4.46397 8.29121 4.66667 8.19759C4.97607 8.05469 5.39145 8.05469 6.22222 8.05469H17.7778C18.6085 8.05469 19.0239 8.05469 19.3333 8.19759C19.536 8.29121 19.7044 8.42587 19.8213 8.58802C20 8.83554 20 9.16785 20 9.83247C20 10.4971 20 10.8294 19.8213 11.0769C19.7044 11.239 19.536 11.3737 19.3333 11.4673C19.0239 11.6102 18.6085 11.6102 17.7778 11.6102H6.22222C5.39145 11.6102 4.97607 11.6102 4.66667 11.4673C4.46397 11.3737 4.29565 11.239 4.17863 11.0769C4 10.8294 4 10.4971 4 9.83247Z" stroke="#71717A" stroke-width="1.5" stroke-linejoin="round"/>
<path d="M6.66406 5.19863C6.66406 4.32199 7.37472 3.61133 8.25136 3.61133H8.56883C10.4624 3.61133 11.9974 5.14635 11.9974 7.0399V8.05577H9.52121C7.94324 8.05577 6.66406 6.77658 6.66406 5.19863Z" stroke="#71717A" stroke-width="1.5" stroke-linejoin="round"/>
<path d="M17.3333 5.19863C17.3333 4.32199 16.6227 3.61133 15.746 3.61133H15.4285C13.535 3.61133 12 5.14635 12 7.0399V8.05577H14.4762C16.0541 8.05577 17.3333 6.77658 17.3333 5.19863Z" stroke="#71717A" stroke-width="1.5" stroke-linejoin="round"/>
<path d="M12 11.6113V21.3891" stroke="#71717A" stroke-width="1.5" stroke-linecap="round" stroke-linejoin="round"/>
</svg>
