<svg width="24" height="25" viewBox="0 0 24 25" fill="none" xmlns="http://www.w3.org/2000/svg">
<path d="M19.6563 8.37136L19.2513 7.64325C18.945 7.09259 18.7919 6.81727 18.5313 6.70747C18.2707 6.59769 17.976 6.68432 17.3866 6.85758L16.3854 7.14973C16.0091 7.23962 15.6143 7.18862 15.2708 7.00575L14.9943 6.84053C14.6997 6.64504 14.4731 6.35681 14.3476 6.018L14.0736 5.17023C13.8935 4.60921 13.8034 4.3287 13.5889 4.16826C13.3745 4.00781 13.0896 4.00781 12.5198 4.00781H11.6051C11.0354 4.00781 10.7506 4.00781 10.5361 4.16826C10.3216 4.3287 10.2316 4.60921 10.0514 5.17023L9.77738 6.018C9.65194 6.35681 9.42532 6.64504 9.13069 6.84053L8.85427 7.00575C8.51069 7.18862 8.1159 7.23962 7.7396 7.14973L6.73839 6.85758C6.14898 6.68432 5.85429 6.59769 5.59371 6.70747C5.33313 6.81727 5.17999 7.09259 4.8737 7.64325L4.46871 8.37136C4.1816 8.88752 4.03805 9.14561 4.06591 9.42034C4.09377 9.69508 4.28595 9.91648 4.6703 10.3593L5.51628 11.3391C5.72305 11.6102 5.86985 12.0828 5.86985 12.5077C5.86985 12.9328 5.7231 13.4052 5.5163 13.6765L4.6703 14.6563C4.28595 15.0991 4.09378 15.3205 4.06591 15.5953C4.03805 15.87 4.1816 16.128 4.46871 16.6442L4.87369 17.3723C5.17998 17.9229 5.33313 18.1983 5.59371 18.308C5.85429 18.4179 6.14899 18.3312 6.73841 18.1579L7.73957 17.8658C8.11593 17.7759 8.51079 17.8269 8.85442 18.0099L9.1308 18.1751C9.42537 18.3706 9.65193 18.6588 9.77736 18.9976L10.0514 19.8454C10.2316 20.4064 10.3216 20.6869 10.5361 20.8474C10.7506 21.0078 11.0354 21.0078 11.6051 21.0078H12.5198C13.0896 21.0078 13.3745 21.0078 13.5889 20.8474C13.8034 20.6869 13.8935 20.4064 14.0736 19.8454L14.3477 18.9976C14.4731 18.6588 14.6996 18.3706 14.9942 18.1751L15.2706 18.0099C15.6142 17.8269 16.0091 17.7759 16.3854 17.8658L17.3866 18.1579C17.976 18.3312 18.2707 18.4179 18.5313 18.308C18.7919 18.1983 18.945 17.9229 19.2513 17.3723L19.6563 16.6442C19.9434 16.128 20.0869 15.87 20.0591 15.5953C20.0312 15.3205 19.839 15.0991 19.4547 14.6563L18.6087 13.6765C18.4019 13.4052 18.2551 12.9328 18.2551 12.5077C18.2551 12.0828 18.402 11.6102 18.6087 11.3391L19.4547 10.3593C19.839 9.91648 20.0312 9.69508 20.0591 9.42034C20.0869 9.14561 19.9434 8.88752 19.6563 8.37136Z" stroke="#71717A" stroke-width="1.67" stroke-linecap="round"/>
<path d="M15.0625 12.5078C15.0625 13.8885 13.7194 15.0078 12.0625 15.0078C10.4056 15.0078 9.0625 13.8885 9.0625 12.5078C9.0625 11.1271 10.4056 10.0078 12.0625 10.0078C13.7194 10.0078 15.0625 11.1271 15.0625 12.5078Z" stroke="#71717A" stroke-width="1.67"/>
</svg>
