<svg width="18" height="17" viewBox="0 0 18 17" fill="none" xmlns="http://www.w3.org/2000/svg">
<path d="M6.5 1V16M16.5 5V12C16.5 13.4002 16.5 14.1002 16.2275 14.635C15.9878 15.1054 15.6054 15.4878 15.135 15.7275C14.6002 16 13.9002 16 12.5 16H5.5C4.09983 16 3.39983 16 2.865 15.7275C2.39462 15.4878 2.01218 15.1054 1.7725 14.635C1.5 14.1002 1.5 13.4002 1.5 12V5C1.5 3.59983 1.5 2.89983 1.7725 2.365C2.01218 1.89462 2.39462 1.51218 2.865 1.2725C3.39983 1 4.09983 1 5.5 1H12.5C13.9002 1 14.6002 1 15.135 1.2725C15.6054 1.51218 15.9878 1.89462 16.2275 2.365C16.5 2.89983 16.5 3.59983 16.5 5Z" stroke="#FC8755" stroke-width="1.66667" stroke-linecap="round" stroke-linejoin="round"/>
</svg>
